<svg width="45" height="45" viewBox="0 0 45 45" fill="none" xmlns="http://www.w3.org/2000/svg">
<g clip-path="url(#clip0)">
<path d="M42.9545 42.9545H2.04548C0.920479 42.9545 0 42.0341 0 40.9091V16.3636H45V40.9091C45 42.0341 44.0795 42.9545 42.9545 42.9545Z" fill="#B0C4D8"/>
<path d="M34.0568 40.9091H4.09089C2.96589 40.9091 2.04541 39.9887 2.04541 38.8637V16.3636H42.9545V32.0113C42.9545 33.1363 42.5454 34.159 41.7272 34.875L36.9204 39.6818C36.2045 40.5 35.1818 40.9091 34.0568 40.9091Z" fill="#ECEFF9"/>
<path d="M45 16.3637H0V8.18183C0 7.05683 0.920479 6.13635 2.04548 6.13635H42.9546C44.0796 6.13635 45.0001 7.05683 45.0001 8.18183V16.3637H45Z" fill="#4C9CD6"/>
<path d="M42.9545 6.13635V12.2727C42.9545 13.3977 42.034 14.3182 40.909 14.3182H2.04548C0.920479 14.3182 0 15.2387 0 16.3637H45V8.18183C45 7.05683 44.0795 6.13635 42.9545 6.13635Z" fill="#3689C9"/>
<path d="M18.4092 25.5681C19.5389 25.5681 20.4547 24.6523 20.4547 23.5226C20.4547 22.393 19.5389 21.4772 18.4092 21.4772C17.2796 21.4772 16.3638 22.393 16.3638 23.5226C16.3638 24.6523 17.2796 25.5681 18.4092 25.5681Z" fill="#4C9CD6"/>
<path d="M26.5909 25.5681C27.7206 25.5681 28.6364 24.6523 28.6364 23.5226C28.6364 22.393 27.7206 21.4772 26.5909 21.4772C25.4612 21.4772 24.5454 22.393 24.5454 23.5226C24.5454 24.6523 25.4612 25.5681 26.5909 25.5681Z" fill="#4C9CD6"/>
<path d="M34.7728 25.5681C35.9025 25.5681 36.8182 24.6523 36.8182 23.5226C36.8182 22.393 35.9025 21.4772 34.7728 21.4772C33.6431 21.4772 32.7273 22.393 32.7273 23.5226C32.7273 24.6523 33.6431 25.5681 34.7728 25.5681Z" fill="#4C9CD6"/>
<path d="M10.2274 34.7727C11.357 34.7727 12.2728 33.8569 12.2728 32.7272C12.2728 31.5976 11.357 30.6818 10.2274 30.6818C9.09768 30.6818 8.18188 31.5976 8.18188 32.7272C8.18188 33.8569 9.09768 34.7727 10.2274 34.7727Z" fill="#4C9CD6"/>
<path d="M18.4092 34.7727C19.5389 34.7727 20.4547 33.8569 20.4547 32.7272C20.4547 31.5976 19.5389 30.6818 18.4092 30.6818C17.2796 30.6818 16.3638 31.5976 16.3638 32.7272C16.3638 33.8569 17.2796 34.7727 18.4092 34.7727Z" fill="#4C9CD6"/>
<path d="M26.5909 34.7728C27.7206 34.7728 28.6364 33.8571 28.6364 32.7274C28.6364 31.5977 27.7206 30.6819 26.5909 30.6819C25.4612 30.6819 24.5454 31.5977 24.5454 32.7274C24.5454 33.8571 25.4612 34.7728 26.5909 34.7728Z" fill="#F26A56"/>
<path d="M42.9545 16.3636H2.04541V18.4091H42.9545V16.3636Z" fill="#C4D7E5"/>
<path d="M36.8182 10.2273H34.7727V6.13635H37.8409L36.8182 10.2273Z" fill="#3689C9"/>
<path d="M33.7501 13.2955C35.4446 13.2955 36.8182 11.9219 36.8182 10.2274C36.8182 8.53285 35.4446 7.15918 33.7501 7.15918C32.0556 7.15918 30.6819 8.53285 30.6819 10.2274C30.6819 11.9219 32.0556 13.2955 33.7501 13.2955Z" fill="#1470B8"/>
<path d="M42.9546 30.6819V32.0114C42.9546 33.1364 42.5455 34.1591 41.7273 34.8751L36.9205 39.6819C36.1023 40.5001 35.0796 40.9092 34.0568 40.9092H32.7273C34.4659 40.9092 35.7955 39.5797 35.7955 37.841V34.7728C35.7955 34.1592 36.2046 33.7501 36.8182 33.7501H39.8863C41.6251 33.7501 42.9546 32.4205 42.9546 30.6819Z" fill="#D5E3EF"/>
<path d="M43.9774 16.3636H42.9547V33.2386C42.7502 33.5455 42.5455 33.75 42.341 34.0568L37.1251 39.2727C36.1024 40.2954 34.6705 40.909 33.1364 40.909H37.4319C38.0455 40.909 38.5569 40.7045 39.0682 40.2954L42.0341 37.3295C42.75 36.5113 44.0796 37.0227 44.0796 38.0454V40.909C44.0796 41.5227 43.6705 41.9317 43.0569 41.9317H1.02276C0.715937 41.9317 0.409111 41.8294 0.20459 41.7272C0.511416 42.4431 1.22729 42.9545 2.04546 42.9545H42.9546C44.0796 42.9545 45.0001 42.034 45.0001 40.909V16.3636H43.9774Z" fill="#99B4CD"/>
<path d="M45.0001 16.3636H42.9546V18.4091H45.0001V16.3636Z" fill="#82A7C4"/>
<path d="M2.04548 16.3636H0V18.4091H2.04548V16.3636Z" fill="#99B4CD"/>
<path d="M26.5908 8.18183H18.409C17.284 8.18183 16.3635 7.26135 16.3635 6.13635H28.6362C28.6363 7.26135 27.7158 8.18183 26.5908 8.18183Z" fill="#70B7E5"/>
<path d="M6.13629 8.18183H5.11359C3.98859 8.18183 3.06812 7.26135 3.06812 6.13635H8.18177C8.18177 7.26135 7.26129 8.18183 6.13629 8.18183Z" fill="#70B7E5"/>
<path d="M33.7501 12.2727C32.6251 12.2727 31.7046 11.3522 31.7046 10.2272V4.09089C31.7046 2.96589 32.6251 2.04541 33.7501 2.04541C34.8751 2.04541 35.7955 2.96589 35.7955 4.09089V10.2272C35.7955 11.3523 34.8751 12.2727 33.7501 12.2727Z" fill="#F6B545"/>
<path d="M14.3182 10.2273H12.2727V6.13635H15.3409L14.3182 10.2273Z" fill="#3689C9"/>
<path d="M11.2501 13.2955C12.9446 13.2955 14.3182 11.9219 14.3182 10.2274C14.3182 8.53285 12.9446 7.15918 11.2501 7.15918C9.55555 7.15918 8.18188 8.53285 8.18188 10.2274C8.18188 11.9219 9.55555 13.2955 11.2501 13.2955Z" fill="#1470B8"/>
<path d="M11.2501 12.2727C10.1251 12.2727 9.20459 11.3522 9.20459 10.2272V4.09089C9.20459 2.96589 10.1251 2.04541 11.2501 2.04541C12.3751 2.04541 13.2955 2.96589 13.2955 4.09089V10.2272C13.2955 11.3523 12.3751 12.2727 11.2501 12.2727Z" fill="#F6B545"/>
<path d="M12.2728 4.09092V9.61362C12.2728 10.0227 12.1705 10.3295 11.8636 10.6363C11.3523 11.1477 10.6363 11.25 10.0228 10.8408C9.51142 10.534 9.20459 9.92035 9.20459 9.20448V10.1251C9.20459 11.1477 9.92046 12.0682 10.9432 12.2727C12.2728 12.4773 13.2955 11.4546 13.2955 10.2273V9.20457V4.09092C13.2955 3.37505 12.2728 3.06823 12.2728 4.09092Z" fill="#F19920"/>
<path d="M34.7728 4.09092V9.61362C34.7728 10.0227 34.6705 10.3295 34.3636 10.6363C33.8523 11.1477 33.1363 11.25 32.5228 10.8408C32.0114 10.534 31.7046 9.92035 31.7046 9.20448V10.1251C31.7046 11.1477 32.4205 12.0682 33.4432 12.2727C34.7728 12.4773 35.7955 11.4546 35.7955 10.2273V9.20457V4.09092C35.7955 3.37505 34.7728 3.06823 34.7728 4.09092Z" fill="#F19920"/>
<path d="M10.2273 4.60229V8.69316C10.2273 8.99998 10.0228 9.20451 9.71594 9.20451C9.40911 9.20451 9.20459 8.99998 9.20459 8.69316V4.60229C9.20459 4.29546 9.40911 4.09094 9.71594 4.09094C10.0227 4.09085 10.2273 4.29546 10.2273 4.60229Z" fill="#FFCB5B"/>
<path d="M32.7273 4.60229V8.69316C32.7273 8.99998 32.5228 9.20451 32.2159 9.20451C31.9091 9.20451 31.7046 8.99998 31.7046 8.69316V4.60229C31.7046 4.29546 31.9091 4.09094 32.2159 4.09094C32.5227 4.09085 32.7273 4.29546 32.7273 4.60229Z" fill="#FFCB5B"/>
</g>
<defs>
<clipPath id="clip0">
<rect width="45" height="45" fill="white"/>
</clipPath>
</defs>
</svg>
