<svg width="46" height="46" viewBox="0 0 46 46" fill="none" xmlns="http://www.w3.org/2000/svg">
<path d="M24.0454 44.9546H1.04542C0.418223 44.9546 0 44.5363 0 43.9091V41.8181C0 41.1908 0.418223 40.7727 1.04542 40.7727H24.0454C24.6727 40.7727 25.0908 41.1909 25.0908 41.8181V43.9091C25.0909 44.5363 24.6727 44.9546 24.0454 44.9546Z" fill="#F6B545"/>
<path d="M19.8636 41.8183H0C0 41.191 0.418223 40.7728 1.04542 40.7728H19.8636V41.8183Z" fill="#FFCB5B"/>
<path d="M19.8636 41.8182V42.8636C19.8636 43.4909 19.4454 43.909 18.8182 43.909H0C0 44.5363 0.418223 44.9545 1.04542 44.9545H18.8181H24.0454C24.6727 44.9545 25.0908 44.5362 25.0908 43.909V41.8181H19.8636V41.8182Z" fill="#F19920"/>
<path d="M3.13624 43.909V42.3408C3.13624 42.0272 2.92718 41.8181 2.61353 41.8181C2.29989 41.8181 2.09082 42.0272 2.09082 42.3408V43.909" fill="#F19920"/>
<path d="M6.27272 43.909V42.3408C6.27272 42.0272 6.06365 41.8181 5.75001 41.8181C5.43636 41.8181 5.22729 42.0272 5.22729 42.3408V43.909" fill="#F19920"/>
<path d="M9.40895 43.909V42.3408C9.40895 42.0272 9.19988 41.8181 8.88624 41.8181C8.57259 41.8181 8.36353 42.0272 8.36353 42.3408V43.909" fill="#F19920"/>
<path d="M12.5454 43.909V42.3408C12.5454 42.0272 12.3364 41.8181 12.0227 41.8181C11.7091 41.8181 11.5 42.0272 11.5 42.3408V43.909" fill="#F19920"/>
<path d="M15.6817 43.909V42.3408C15.6817 42.0272 15.4726 41.8181 15.1589 41.8181C14.8453 41.8181 14.6362 42.0272 14.6362 42.3408V43.909" fill="#F19920"/>
<path d="M18.8181 43.909V42.3408C18.8181 42.0272 18.6091 41.8181 18.2954 41.8181C17.9818 41.8181 17.7727 42.0272 17.7727 42.3408V43.909" fill="#F19920"/>
<path d="M26.1362 40.7727H3.13624C2.50895 40.7727 2.09082 40.3545 2.09082 39.7273V37.6364C2.09082 37.0091 2.50904 36.5909 3.13624 36.5909H26.1362C26.7635 36.5909 27.1817 37.0092 27.1817 37.6364V39.7273C27.1817 40.3546 26.7635 40.7727 26.1362 40.7727Z" fill="#F6B545"/>
<path d="M21.9545 37.6364H2.09082C2.09082 37.0091 2.50904 36.5909 3.13624 36.5909H21.9545V37.6364Z" fill="#FFCB5B"/>
<path d="M21.9545 37.6363V38.6817C21.9545 39.309 21.5362 39.7272 20.909 39.7272H2.09082C2.09082 40.3545 2.50904 40.7726 3.13624 40.7726H20.909H26.1362C26.7635 40.7726 27.1817 40.3544 27.1817 39.7272V37.6362H21.9545V37.6363Z" fill="#F19920"/>
<path d="M5.22706 39.7273V38.1591C5.22706 37.8454 5.018 37.6364 4.70435 37.6364C4.39071 37.6364 4.18164 37.8454 4.18164 38.1591V39.7273" fill="#F19920"/>
<path d="M8.36354 39.7273V38.1591C8.36354 37.8454 8.15447 37.6364 7.84083 37.6364C7.52718 37.6364 7.31812 37.8454 7.31812 38.1591V39.7273" fill="#F19920"/>
<path d="M11.4998 39.7273V38.1591C11.4998 37.8454 11.2907 37.6364 10.9771 37.6364C10.6634 37.6364 10.4543 37.8454 10.4543 38.1591V39.7273" fill="#F19920"/>
<path d="M14.6362 39.7273V38.1591C14.6362 37.8454 14.4272 37.6364 14.1135 37.6364C13.7999 37.6364 13.5908 37.8454 13.5908 38.1591V39.7273" fill="#F19920"/>
<path d="M17.7727 39.7273V38.1591C17.7727 37.8454 17.5636 37.6364 17.25 37.6364C16.9364 37.6364 16.7273 37.8454 16.7273 38.1591V39.7273" fill="#F19920"/>
<path d="M20.9089 39.7273V38.1591C20.9089 37.8454 20.6999 37.6364 20.3862 37.6364C20.0726 37.6364 19.8635 37.8454 19.8635 38.1591V39.7273" fill="#F19920"/>
<path d="M28.2273 32.4091H5.22731C4.60002 32.4091 4.18188 31.9908 4.18188 31.3637V29.2727C4.18188 28.6454 4.60011 28.2273 5.22731 28.2273H28.2273C28.8546 28.2273 29.2727 28.6455 29.2727 29.2727V31.3637C29.2727 31.9909 28.8546 32.4091 28.2273 32.4091Z" fill="#F6B545"/>
<path d="M24.0455 29.2727H4.18188C4.18188 28.6454 4.60011 28.2273 5.22731 28.2273H24.0455V29.2727Z" fill="#FFCB5B"/>
<path d="M24.0455 29.2727V30.3181C24.0455 30.9454 23.6273 31.3635 23.0001 31.3635H4.18188C4.18188 31.9908 4.60011 32.4089 5.22731 32.4089H23.0001H28.2274C28.8547 32.4089 29.2728 31.9907 29.2728 31.3635V29.2726H24.0455V29.2727Z" fill="#F19920"/>
<path d="M7.31837 31.3636V29.7954C7.31837 29.4818 7.10931 29.2727 6.79566 29.2727C6.48202 29.2727 6.27295 29.4818 6.27295 29.7954V31.3636" fill="#F19920"/>
<path d="M10.4546 31.3636V29.7954C10.4546 29.4818 10.2455 29.2727 9.93189 29.2727C9.61825 29.2727 9.40918 29.4818 9.40918 29.7954V31.3636" fill="#F19920"/>
<path d="M13.5911 31.3636V29.7954C13.5911 29.4818 13.382 29.2727 13.0684 29.2727C12.7547 29.2727 12.5457 29.4818 12.5457 29.7954V31.3636" fill="#F19920"/>
<path d="M16.7273 31.3636V29.7954C16.7273 29.4818 16.5182 29.2727 16.2046 29.2727C15.891 29.2727 15.6819 29.4818 15.6819 29.7954V31.3636" fill="#F19920"/>
<path d="M19.8638 31.3636V29.7954C19.8638 29.4818 19.6547 29.2727 19.3411 29.2727C19.0274 29.2727 18.8184 29.4818 18.8184 29.7954V31.3636" fill="#F19920"/>
<path d="M23 31.3636V29.7954C23 29.4818 22.7909 29.2727 22.4773 29.2727C22.1637 29.2727 21.9546 29.4818 21.9546 29.7954V31.3636" fill="#F19920"/>
<path d="M26.1362 28.2273H3.13624C2.50895 28.2273 2.09082 27.8091 2.09082 27.1819V25.091C2.09082 24.4637 2.50904 24.0455 3.13624 24.0455H26.1362C26.7635 24.0455 27.1817 24.4638 27.1817 25.091V27.1819C27.1817 27.8091 26.7635 28.2273 26.1362 28.2273Z" fill="#F6B545"/>
<path d="M21.9545 25.091H2.09082C2.09082 24.4637 2.50904 24.0455 3.13624 24.0455H21.9545V25.091Z" fill="#FFCB5B"/>
<path d="M21.9545 25.0909V26.1363C21.9545 26.7636 21.5362 27.1818 20.909 27.1818H2.09082C2.09082 27.809 2.50904 28.2272 3.13624 28.2272H20.909H26.1362C26.7635 28.2272 27.1817 27.809 27.1817 27.1818V25.0908H21.9545V25.0909Z" fill="#F19920"/>
<path d="M5.22706 27.1818V25.6135C5.22706 25.2999 5.018 25.0908 4.70435 25.0908C4.39071 25.0908 4.18164 25.2999 4.18164 25.6135V27.1818" fill="#F19920"/>
<path d="M8.36354 27.1818V25.6135C8.36354 25.2999 8.15447 25.0908 7.84083 25.0908C7.52718 25.0908 7.31812 25.2999 7.31812 25.6135V27.1818" fill="#F19920"/>
<path d="M11.4998 27.1818V25.6135C11.4998 25.2999 11.2907 25.0908 10.9771 25.0908C10.6634 25.0908 10.4543 25.2999 10.4543 25.6135V27.1818" fill="#F19920"/>
<path d="M14.6362 27.1818V25.6135C14.6362 25.2999 14.4272 25.0908 14.1135 25.0908C13.7999 25.0908 13.5908 25.2999 13.5908 25.6135V27.1818" fill="#F19920"/>
<path d="M17.7727 27.1818V25.6135C17.7727 25.2999 17.5636 25.0908 17.25 25.0908C16.9364 25.0908 16.7273 25.2999 16.7273 25.6135V27.1818" fill="#F19920"/>
<path d="M20.9089 27.1818V25.6135C20.9089 25.2999 20.6999 25.0908 20.3862 25.0908C20.0726 25.0908 19.8635 25.2999 19.8635 25.6135V27.1818" fill="#F19920"/>
<path d="M24.0454 36.5909H1.04542C0.418223 36.5909 0 36.1727 0 35.5454V33.4545C0 32.8272 0.418223 32.4091 1.04542 32.4091H24.0454C24.6727 32.4091 25.0908 32.8273 25.0908 33.4545V35.5454C25.0909 36.1727 24.6727 36.5909 24.0454 36.5909Z" fill="#F6B545"/>
<path d="M19.8636 33.4546H0C0 32.8273 0.418223 32.4092 1.04542 32.4092H19.8636V33.4546Z" fill="#FFCB5B"/>
<path d="M19.8636 33.4546V34.5C19.8636 35.1273 19.4454 35.5454 18.8182 35.5454H0C0 36.1727 0.418223 36.5908 1.04542 36.5908H18.8181H24.0454C24.6727 36.5908 25.0908 36.1726 25.0908 35.5454V33.4545H19.8636V33.4546Z" fill="#F19920"/>
<path d="M3.13624 35.5454V33.9772C3.13624 33.6635 2.92718 33.4545 2.61353 33.4545C2.29989 33.4545 2.09082 33.6635 2.09082 33.9772V35.5454" fill="#F19920"/>
<path d="M6.27272 35.5454V33.9772C6.27272 33.6635 6.06365 33.4545 5.75001 33.4545C5.43636 33.4545 5.22729 33.6635 5.22729 33.9772V35.5454" fill="#F19920"/>
<path d="M9.40895 35.5454V33.9772C9.40895 33.6635 9.19988 33.4545 8.88624 33.4545C8.57259 33.4545 8.36353 33.6635 8.36353 33.9772V35.5454" fill="#F19920"/>
<path d="M12.5454 35.5454V33.9772C12.5454 33.6635 12.3364 33.4545 12.0227 33.4545C11.7091 33.4545 11.5 33.6635 11.5 33.9772V35.5454" fill="#F19920"/>
<path d="M15.6817 35.5454V33.9772C15.6817 33.6635 15.4726 33.4545 15.1589 33.4545C14.8453 33.4545 14.6362 33.6635 14.6362 33.9772V35.5454" fill="#F19920"/>
<path d="M18.8181 35.5454V33.9772C18.8181 33.6635 18.6091 33.4545 18.2954 33.4545C17.9818 33.4545 17.7727 33.6635 17.7727 33.9772V35.5454" fill="#F19920"/>
<path d="M43.9091 38.1591C42.5501 37.2181 41.8182 35.65 41.8182 33.9773C41.8182 27.6 39.3091 21.5363 34.8136 17.0409L30.3182 12.5455V9.40914L33.9773 4.80914C34.291 4.39092 34.5001 3.86821 34.5001 3.34541C34.5001 2.09083 33.4547 1.04541 32.2001 1.04541H28.2274L27.1819 3.13634L25.091 1.04541H20.0728C18.8182 1.04541 17.7728 2.09083 17.7728 3.34541C17.7728 3.86812 17.9819 4.39083 18.2955 4.80905L21.9546 9.40905V12.5454L17.4591 17.0408C12.9637 21.5363 10.4546 27.5999 10.4546 33.9772C10.4546 35.6499 9.72279 37.2181 8.36364 38.159C7.00448 39.0998 6.27271 40.668 6.27271 42.3407C6.27271 43.8044 7.4227 44.9544 8.88635 44.9544H43.3863C44.85 44.9544 46 43.8044 46 42.3407C46.0001 40.6682 45.2683 39.1 43.9091 38.1591Z" fill="#C97629"/>
<path d="M43.909 38.1591C42.5499 37.1136 41.818 35.5454 41.818 33.8727C41.9226 27.2863 38.8908 21.1181 34.2908 16.4136L30.318 12.5454V9.40905L33.9771 4.80905C34.6044 4.07728 34.7089 3.03177 34.1862 2.09083C33.7679 1.35905 32.9316 1.04541 32.0952 1.04541C31.3635 1.04541 30.9452 1.88177 31.1543 2.50905C31.2589 2.71812 31.3634 3.03177 31.3634 3.34541C31.3634 3.86812 31.1543 4.39083 30.8407 4.80905L27.1816 9.40905V12.5454H21.9543L20.9089 13.5908H28.2271L32.0953 17.4591C36.3817 21.7454 38.0544 27.6 37.6363 33.5591C37.5317 35.3363 38.2636 37.0091 39.6226 38.0545C39.7272 38.159 39.8317 38.2635 39.9363 38.2635C41.5045 39.9363 40.1453 42.759 37.7408 42.759H6.3772C6.58626 43.909 7.63177 44.8499 8.88626 44.8499H39.2045H41.8181H43.3864C44.8499 44.85 45.9999 43.7 45.9999 42.2363V42.0273C45.9999 40.4591 45.1635 39.1 43.909 38.1591Z" fill="#B06328"/>
<path d="M30.8409 12.5454H21.4317C20.5954 12.5454 19.8635 11.8136 19.8635 10.9772C19.8635 10.1408 20.5953 9.40894 21.4317 9.40894H30.8408C31.6772 9.40894 32.409 10.1407 32.409 10.9772C32.409 11.8136 31.6773 12.5454 30.8409 12.5454Z" fill="#FFCB5B"/>
<path d="M21.4319 9.40906H26.6592C26.9728 9.40906 27.1819 9.61812 27.1819 9.93177C27.1819 10.2454 26.9728 10.4545 26.6592 10.4545H21.4319C21.1182 10.4545 20.9092 10.2454 20.9092 9.93177C20.9092 9.61821 21.1183 9.40906 21.4319 9.40906Z" fill="#FFE278"/>
<path d="M30.841 9.40906H30.3183V10.4545C30.3183 11.0818 29.9 11.4999 29.2728 11.4999H19.9683C20.1773 12.1272 20.8046 12.5453 21.4319 12.5453H30.841C31.6773 12.5453 32.4092 11.8135 32.4092 10.9771C32.4092 10.1407 31.6773 9.40906 30.841 9.40906Z" fill="#F6B545"/>
<path d="M27.7046 11.5H30.841C31.1546 11.5 31.3637 11.7091 31.3637 12.0227C31.3637 12.3364 31.1546 12.5454 30.841 12.5454H27.7046C27.391 12.5454 27.1819 12.3364 27.1819 12.0227C27.1818 11.7091 27.391 11.5 27.7046 11.5Z" fill="#F19920"/>
<path d="M27.1818 12.5454H25.0908V20.9091H27.1818V12.5454Z" fill="#F6B545"/>
<path d="M25.0908 12.5454V13.5909H26.1362V20.9091H27.1817V13.5909V12.5454H25.0908Z" fill="#F19920"/>
<path d="M26.1363 36.5909C30.7555 36.5909 34.5 32.8464 34.5 28.2273C34.5 23.6082 30.7555 19.8636 26.1363 19.8636C21.5172 19.8636 17.7727 23.6082 17.7727 28.2273C17.7727 32.8464 21.5172 36.5909 26.1363 36.5909Z" fill="#F6B545"/>
<path d="M32.5138 22.8954C33.7683 24.359 34.5001 26.1363 34.5001 28.2273C34.5001 32.8273 30.7365 36.5909 26.1365 36.5909C24.0455 36.5909 22.2682 35.8591 20.8047 34.6045C22.3729 36.4863 24.6729 37.6363 27.182 37.6363C31.782 37.6363 35.5456 33.8727 35.5456 29.2727C35.5455 26.659 34.3955 24.359 32.5138 22.8954Z" fill="#B06328"/>
<path d="M26.1363 35.5455C30.1781 35.5455 33.4546 32.269 33.4546 28.2273C33.4546 24.1855 30.1781 20.9091 26.1363 20.9091C22.0946 20.9091 18.8181 24.1855 18.8181 28.2273C18.8181 32.269 22.0946 35.5455 26.1363 35.5455Z" fill="#FFCB5B"/>
<path d="M33.4547 28.2273C33.4547 32.3046 30.2138 35.5455 26.1365 35.5455V36.5909C30.7365 36.5909 34.5001 32.8273 34.5001 28.2273H33.4547Z" fill="#F19920"/>
<path d="M26.1364 20.9091V19.8636C21.5364 19.8636 17.7727 23.6273 17.7727 28.2273H18.8181C18.8182 24.15 22.0591 20.9091 26.1364 20.9091Z" fill="#FFE27A"/>
<path d="M27.1818 27.1818H25.0909C24.4636 27.1818 24.0454 26.7636 24.0454 26.1364C24.0454 25.5091 24.4637 25.091 25.0909 25.091H28.2272C28.8545 25.091 29.2726 24.6728 29.2726 24.0456C29.2726 23.4183 28.8544 23.0001 28.2272 23.0001H27.1818C27.1818 22.3728 26.7636 21.9547 26.1364 21.9547C25.5091 21.9547 25.0909 22.3729 25.0909 23.0001C23.3137 23.0001 21.9546 24.3592 21.9546 26.1365C21.9546 27.9138 23.3137 29.2728 25.0909 29.2728H27.1819C27.8092 29.2728 28.2273 29.6911 28.2273 30.3183C28.2273 30.9455 27.8091 31.3637 27.1819 31.3637H24.0455C23.4182 31.3637 23.0001 31.7819 23.0001 32.4091C23.0001 33.0364 23.4183 33.4545 24.0455 33.4545H25.0909C25.0909 34.0818 25.5092 34.5 26.1364 34.5C26.7637 34.5 27.1818 34.0817 27.1818 33.4545C28.9591 33.4545 30.3181 32.0955 30.3181 30.3182C30.3181 28.5409 28.9591 27.1818 27.1818 27.1818Z" fill="#E78825"/>
</svg>
