<svg width="48" height="48" viewBox="0 0 48 48" fill="none" xmlns="http://www.w3.org/2000/svg">
<g clip-path="url(#clip0)">
<path d="M45.8182 30.5455H2.18184C0.981844 30.5455 0 29.5636 0 28.3636V4.36361C0 3.16361 0.981844 2.18176 2.18184 2.18176H45.8182C47.0182 2.18176 48.0001 3.16361 48.0001 4.36361V28.3636C48 29.5636 47.0182 30.5455 45.8182 30.5455Z" fill="#0E9347"/>
<path d="M40.3635 21.8181C37.8544 21.8181 35.5635 23.0181 34.2544 24.9817C33.1635 24.4364 31.9635 24 30.5453 24C26.7272 24 23.5635 26.8364 23.0181 30.5454H45.8181C46.9089 30.5454 47.7817 29.7818 47.9999 28.6908C47.5635 24.8727 44.2908 21.8181 40.3635 21.8181Z" fill="#0D8944"/>
<path d="M41.4546 28.3636H6.54548C6.54548 25.9636 4.58188 24 2.18188 24V8.72724C4.58188 8.72724 6.54548 6.76365 6.54548 4.36365H41.4546C41.4546 6.76365 43.4182 8.72724 45.8182 8.72724V24C43.4182 24 41.4546 25.9636 41.4546 28.3636Z" fill="#3BB54A"/>
<path d="M40.3635 21.8181C37.8544 21.8181 35.5635 23.0181 34.2544 24.9817C33.1635 24.4364 31.9635 24 30.5453 24C27.4908 24 24.8726 25.7454 23.6726 28.3636H41.4544C41.4544 25.9636 43.309 24.109 45.709 24C44.2908 22.6908 42.4363 21.8181 40.3635 21.8181Z" fill="#0E9347"/>
<path d="M24 26.1817C28.8199 26.1817 32.7273 21.786 32.7273 16.3636C32.7273 10.9411 28.8199 6.54541 24 6.54541C19.18 6.54541 15.2727 10.9411 15.2727 16.3636C15.2727 21.786 19.18 26.1817 24 26.1817Z" fill="#0E9347"/>
<path d="M10.9091 18.5454C12.1141 18.5454 13.091 17.5686 13.091 16.3636C13.091 15.1586 12.1141 14.1818 10.9091 14.1818C9.70414 14.1818 8.72729 15.1586 8.72729 16.3636C8.72729 17.5686 9.70414 18.5454 10.9091 18.5454Z" fill="#0E9347"/>
<path d="M37.0908 18.5454C38.2958 18.5454 39.2726 17.5686 39.2726 16.3636C39.2726 15.1586 38.2958 14.1818 37.0908 14.1818C35.8858 14.1818 34.9089 15.1586 34.9089 16.3636C34.9089 17.5686 35.8858 18.5454 37.0908 18.5454Z" fill="#0E9347"/>
<path d="M25.0909 15.2727H22.9091C22.2545 15.2727 21.8182 14.8363 21.8182 14.1819C21.8182 13.5273 22.2546 13.091 22.9091 13.091H26.1818C26.8364 13.091 27.2727 12.6546 27.2727 12.0001C27.2727 11.3455 26.8363 10.9092 26.1818 10.9092H25.0909C25.0909 10.2547 24.6545 9.81836 24.0001 9.81836C23.3455 9.81836 22.9092 10.2548 22.9092 10.9092C21.0546 10.9092 19.6365 12.3274 19.6365 14.182C19.6365 16.0365 21.0546 17.4547 22.9092 17.4547H25.091C25.7456 17.4547 26.1819 17.8911 26.1819 18.5455C26.1819 19.2001 25.7455 19.6364 25.091 19.6364H21.8183C21.1638 19.6364 20.7274 20.0728 20.7274 20.7273C20.7274 21.3819 21.1638 21.8182 21.8183 21.8182H22.9092C22.9092 22.4727 23.3456 22.909 24.0001 22.909C24.6546 22.909 25.0909 22.4726 25.0909 21.8182C26.9455 21.8182 28.3637 20.4 28.3637 18.5455C28.3637 16.6909 26.9455 15.2727 25.0909 15.2727Z" fill="#89C763"/>
<path d="M28.3637 39.2728C32.5812 39.2728 36.0001 35.8539 36.0001 31.6364C36.0001 27.4189 32.5812 24 28.3637 24C24.1462 24 20.7273 27.4189 20.7273 31.6364C20.7273 35.8539 24.1462 39.2728 28.3637 39.2728Z" fill="#FFCA5D"/>
<path d="M38.1818 37.0909C42.3993 37.0909 45.8182 33.672 45.8182 29.4545C45.8182 25.2371 42.3993 21.8181 38.1818 21.8181C33.9643 21.8181 30.5454 25.2371 30.5454 29.4545C30.5454 33.672 33.9643 37.0909 38.1818 37.0909Z" fill="#F6B545"/>
<path d="M38.1818 21.8181C33.9273 21.8181 30.5454 25.2 30.5454 29.4545C30.5454 33.7091 33.9273 37.0909 38.1818 37.0909C42.4364 37.0909 45.8182 33.7091 45.8182 29.4545C45.8182 25.2 42.4364 21.8181 38.1818 21.8181ZM38.1818 34.9091C35.1273 34.9091 32.7273 32.5091 32.7273 29.4545C32.7273 26.4 35.1273 24 38.1818 24C41.2364 24 43.6364 26.4 43.6364 29.4545C43.6364 32.5091 41.2364 34.9091 38.1818 34.9091Z" fill="#FFCB5B"/>
<path d="M38.1819 36.9819C42.4364 37.091 45.8183 33.6 45.8183 29.4546H45.7092C45.1637 29.4546 44.7273 29.891 44.6183 30.4364C44.4001 31.9637 43.6364 33.3819 42.5456 34.3637C41.6729 35.2364 40.4729 35.7819 39.1637 36C38.6182 36 38.1819 36.4364 38.1819 36.9819Z" fill="#F6B545"/>
<path d="M38.1818 21.9273C33.9272 21.8182 30.5454 25.3091 30.5454 29.4546H30.6545C31.2 29.4546 31.6364 29.0182 31.7454 28.4727C31.9636 26.9454 32.7272 25.5273 33.8181 24.5454C34.6908 23.6727 35.8908 23.1273 37.2 22.909C37.7454 22.9091 38.1818 22.4727 38.1818 21.9273Z" fill="#FFE27A"/>
<path d="M33.4909 30.2182C33.4909 27.1636 35.8909 24.7636 38.9455 24.7636C40.2546 24.7636 41.4546 25.2 42.4363 26.0727C41.3455 24.7636 39.9273 24 38.1819 24C35.1273 24 32.7273 26.4 32.7273 29.4546C32.7273 31.2 33.4909 32.6182 34.6909 33.6C33.9273 32.7273 33.4909 31.5273 33.4909 30.2182Z" fill="#F19920"/>
<path d="M41.4545 32.8365C41.3454 32.8365 41.2364 32.8365 41.1272 32.7273C40.9091 32.5092 40.9091 32.1819 41.1272 31.9637C41.7818 31.3092 42.1091 30.3273 42.1091 29.4546C42.1091 29.1273 42.3272 28.9092 42.6545 28.9092C42.9818 28.9092 43.2 29.1273 43.2 29.4546C43.2 30.6546 42.7636 31.8546 42 32.7273C41.7818 32.8365 41.5636 32.8365 41.4545 32.8365Z" fill="#FFCB5B"/>
<path d="M38.1819 32.7272C37.5274 32.7272 37.0911 32.2908 37.0911 31.6364V27.2728C37.0911 26.6182 37.5275 26.1819 38.1819 26.1819C38.8364 26.1819 39.2728 26.6183 39.2728 27.2728V31.6364C39.2728 32.2908 38.8365 32.7272 38.1819 32.7272Z" fill="#F19920"/>
<path d="M42.2182 35.8909C41.4546 33.1636 39.4909 30.9818 36.9818 30C36.5454 27.4909 34.9091 25.3091 32.8364 24C31.5273 25.4182 30.6545 27.2727 30.6545 29.3454C30.6545 33.6 34.0364 36.9818 38.291 36.9818C39.7092 37.0909 41.0182 36.6546 42.2182 35.8909Z" fill="#F19920"/>
<path d="M34.691 33.6C33.9274 32.6181 33.3819 31.4181 33.3819 30.1091C33.3819 28.5818 34.0364 27.1637 35.1273 26.1818C34.9091 25.8545 34.6909 25.6364 34.4727 25.4182C33.3819 26.4001 32.7273 27.8182 32.7273 29.4546C32.7274 31.2 33.491 32.6181 34.691 33.6Z" fill="#E78825"/>
<path d="M37.0911 30.1091V31.6364C37.0911 32.291 37.5275 32.7273 38.1819 32.7273C38.8364 32.7273 39.2728 32.2909 39.2728 31.6364V31.4183C38.6183 30.8727 37.8548 30.4364 37.0911 30.1091Z" fill="#E78825"/>
<path d="M42.2181 35.8908C42 35.1272 41.7817 34.4727 41.3454 33.8181C40.4727 34.4727 39.3818 34.909 38.1818 34.909C35.1273 34.909 32.7273 32.509 32.7273 29.4544C32.7273 27.818 33.3818 26.3999 34.4727 25.418C33.9273 24.8726 33.3818 24.4362 32.7273 24.1089C31.4181 25.527 30.5454 27.3816 30.5454 29.4543C30.5454 33.7089 33.9273 37.0907 38.1818 37.0907C39.7091 37.0908 41.0181 36.6545 42.2181 35.8908Z" fill="#F6B545"/>
<path d="M41.8908 34.9092C41.1272 35.4546 40.1453 35.7819 39.1635 36.0001C38.618 36.1092 38.1816 36.5455 38.1816 37.0909C39.7089 37.0909 41.0181 36.6545 42.2181 35.8909C42.109 35.5636 41.9999 35.2365 41.8908 34.9092Z" fill="#F19920"/>
<path d="M32.7273 24.1091C31.4181 25.5273 30.5454 27.3818 30.5454 29.4546H30.6545C31.2 29.4546 31.6364 29.0182 31.7454 28.4727C31.9636 26.9454 32.7273 25.6363 33.709 24.6546C33.3818 24.5454 33.0545 24.3273 32.7273 24.1091Z" fill="#FFCB5B"/>
<path d="M28.3637 39.2728C32.5812 39.2728 36.0001 35.8539 36.0001 31.6364C36.0001 27.4189 32.5812 24 28.3637 24C24.1462 24 20.7273 27.4189 20.7273 31.6364C20.7273 35.8539 24.1462 39.2728 28.3637 39.2728Z" fill="#F6B545"/>
<path d="M27.2727 37.0909C27.2727 37.8545 27.3818 38.509 27.6 39.2727C27.8181 39.2727 28.1454 39.2727 28.3636 39.2727C32.6181 39.2727 36 35.8909 36 31.6363C36 30.8727 35.8909 30.2182 35.6727 29.4545C35.4545 29.4545 35.1273 29.4545 34.9091 29.4545C30.6546 29.4546 27.2727 32.8364 27.2727 37.0909Z" fill="#F19920"/>
<path d="M28.3637 24C24.1091 24 20.7273 27.3818 20.7273 31.6364C20.7273 35.891 24.1091 39.2728 28.3637 39.2728C32.6183 39.2728 36.0001 35.8909 36.0001 31.6364C36.0001 27.3819 32.6183 24 28.3637 24ZM28.3637 37.0909C25.3091 37.0909 22.9091 34.6909 22.9091 31.6363C22.9091 28.5818 25.3091 26.1818 28.3637 26.1818C31.4183 26.1818 33.8183 28.5818 33.8183 31.6363C33.8183 34.6909 31.4183 37.0909 28.3637 37.0909Z" fill="#FFCB5B"/>
<path d="M28.3635 39.1635C32.6181 39.2727 35.9999 35.7818 35.9999 31.6364H35.8908C35.3454 31.6364 34.909 32.0728 34.7999 32.6182C34.5818 34.1455 33.8181 35.5636 32.7272 36.5455C31.8545 37.4182 30.6545 37.9636 29.3454 38.1819C28.7999 38.1818 28.3635 38.6181 28.3635 39.1635Z" fill="#F6B545"/>
<path d="M28.3637 24.1092C24.1091 24.0001 20.7273 27.491 20.7273 31.6365H20.8364C21.3819 31.6365 21.8183 31.2001 21.9273 30.6546C22.1455 29.1273 22.9091 27.7092 24 26.7273C24.8727 25.8546 26.0727 25.3092 27.3819 25.0909C27.9274 25.0909 28.3637 24.6546 28.3637 24.1092Z" fill="#FFE27A"/>
<path d="M23.6726 32.4C23.6726 29.3455 26.0726 26.9455 29.1272 26.9455C30.4363 26.9455 31.6363 27.3819 32.6181 28.2546C31.5272 26.9455 30.1089 26.1819 28.3635 26.1819C25.3089 26.1819 22.9089 28.5819 22.9089 31.6364C22.9089 33.3819 23.6725 34.8 24.8725 35.7819C24.109 34.9092 23.6726 33.7092 23.6726 32.4Z" fill="#F19920"/>
<path d="M31.6364 35.0181C31.5273 35.0181 31.4183 35.0181 31.3091 34.909C31.091 34.6908 31.091 34.3635 31.3091 34.1454C31.9637 33.4908 32.291 32.509 32.291 31.6363C32.291 31.309 32.5091 31.0908 32.8364 31.0908C33.1637 31.0908 33.3819 31.309 33.3819 31.6363C33.3819 32.8363 32.9454 34.0363 32.1818 34.909C31.9636 35.0181 31.7454 35.0181 31.6364 35.0181Z" fill="#FFCB5B"/>
<path d="M28.3636 34.9091C27.709 34.9091 27.2727 34.4727 27.2727 33.8182V29.4546C27.2727 28.8001 27.7091 28.3638 28.3636 28.3638C29.0181 28.3638 29.4545 28.8002 29.4545 29.4546V33.8182C29.4545 34.4727 29.0181 34.9091 28.3636 34.9091Z" fill="#F19920"/>
<path d="M33.3817 29.5636C33.5999 30.2182 33.8182 30.8727 33.8182 31.6363C33.8182 34.6909 31.4181 37.0909 28.3636 37.0909C28.0363 37.0909 27.6 37.0909 27.2727 36.9817V37.0909C27.2727 37.8545 27.3818 38.509 27.6 39.2727C27.8181 39.2727 28.1454 39.2727 28.3636 39.2727C32.6181 39.2727 36 35.8909 36 31.6363C36 30.8727 35.8909 30.2182 35.6727 29.4545C35.4546 29.4545 35.1273 29.4545 34.9091 29.4545C34.3635 29.4546 33.9272 29.4546 33.3817 29.5636Z" fill="#F6B545"/>
<path d="M33.818 45.8182C38.0355 45.8182 41.4545 42.3993 41.4545 38.1818C41.4545 33.9643 38.0355 30.5454 33.818 30.5454C29.6006 30.5454 26.1816 33.9643 26.1816 38.1818C26.1816 42.3993 29.6006 45.8182 33.818 45.8182Z" fill="#F6B545"/>
<path d="M33.818 30.5454C29.5635 30.5454 26.1816 33.9273 26.1816 38.1818C26.1816 42.4364 29.5635 45.8182 33.818 45.8182C38.0726 45.8182 41.4545 42.4364 41.4545 38.1818C41.4545 33.9273 38.0726 30.5454 33.818 30.5454ZM33.818 43.6364C30.7635 43.6364 28.3635 41.2364 28.3635 38.1818C28.3635 35.1273 30.7635 32.7273 33.818 32.7273C36.8726 32.7273 39.2726 35.1273 39.2726 38.1818C39.2726 41.2364 36.8726 43.6364 33.818 43.6364Z" fill="#FFCB5B"/>
<path d="M33.8181 45.7092C38.0727 45.8183 41.4545 42.3273 41.4545 38.1819H41.3454C40.8 38.1819 40.3636 38.6183 40.2545 39.1637C40.0364 40.691 39.2727 42.1092 38.1818 43.091C37.3091 43.9637 36.1091 44.5092 34.8 44.7274C34.2545 44.7273 33.8181 45.1636 33.8181 45.7092Z" fill="#F6B545"/>
<path d="M33.818 30.6546C29.5635 30.5455 26.1816 34.0364 26.1816 38.1819H26.2908C26.8362 38.1819 27.2726 37.7455 27.3816 37.2C27.5998 35.6727 28.3635 34.2546 29.4544 33.2727C30.3271 32.4 31.5271 31.8546 32.8362 31.6363C33.3817 31.6364 33.818 31.2 33.818 30.6546Z" fill="#FFE27A"/>
<path d="M29.1272 38.9455C29.1272 35.8909 31.5272 33.4909 34.5818 33.4909C35.8909 33.4909 37.0909 33.9273 38.0727 34.8C36.9818 33.4909 35.5635 32.7273 33.8181 32.7273C30.7635 32.7273 28.3635 35.1273 28.3635 38.1819C28.3635 39.9273 29.1271 41.3455 30.3271 42.3273C29.5635 41.4546 29.1272 40.2546 29.1272 38.9455Z" fill="#F19920"/>
<path d="M37.0908 41.5636C36.9816 41.5636 36.8726 41.5636 36.7635 41.4545C36.5453 41.2364 36.5453 40.9091 36.7635 40.6909C37.418 40.0364 37.7453 39.0545 37.7453 38.1818C37.7453 37.8545 37.9635 37.6364 38.2908 37.6364C38.618 37.6364 38.8362 37.8545 38.8362 38.1818C38.8362 39.3818 38.3998 40.5818 37.6362 41.4545C37.418 41.5636 37.1999 41.5636 37.0908 41.5636Z" fill="#FFCB5B"/>
<path d="M33.8182 41.4546C33.1636 41.4546 32.7273 41.0182 32.7273 40.3637V36.0001C32.7273 35.3455 33.1637 34.9092 33.8182 34.9092C34.4727 34.9092 34.909 35.3456 34.909 36.0001V40.3637C34.9091 41.0182 34.4727 41.4546 33.8182 41.4546Z" fill="#F19920"/>
</g>
<defs>
<clipPath id="clip0">
<rect width="48" height="48" fill="white"/>
</clipPath>
</defs>
</svg>
