<svg width="47" height="47" viewBox="0 0 47 47" fill="none" xmlns="http://www.w3.org/2000/svg">
<path d="M26.7506 33.0681L13.9614 20.279L24.4058 9.83457C29.415 4.82549 35.8095 1.52161 42.7369 0.349277L44.6553 0.029541C44.7619 0.029541 44.8684 0.029541 44.975 0.029541C46.0408 0.029541 46.8934 0.88214 46.8934 1.94796C46.8934 2.05457 46.8934 2.16108 46.8934 2.26769L46.6803 4.29263C45.5079 11.22 42.2041 17.6147 37.3016 22.5171L26.7506 33.0681Z" fill="#D5E3EF"/>
<path d="M38.2606 14.0975L23.0203 29.3379L26.7504 33.068L37.1948 22.6236C42.2039 17.6145 45.4011 11.3266 46.5735 4.39913L46.9998 2.37419C46.9998 2.26758 46.9998 2.16107 46.9998 2.05446C46.9998 1.52159 46.7867 1.09525 46.467 0.775513C44.8684 5.67807 42.0974 10.2608 38.2606 14.0975Z" fill="#B0C4D9"/>
<path d="M27.2835 43.1929C26.644 42.5534 25.5783 42.5534 24.9388 43.1929C24.0862 44.0455 23.5534 46.7099 23.4468 46.8165C23.4468 46.9231 23.4468 46.9231 23.4468 46.9231C23.4468 46.9231 23.5534 47.0297 23.5534 46.9231C23.66 46.9231 26.2178 46.3902 27.177 45.431C28.0295 44.7915 28.0295 43.8323 27.2835 43.1929Z" fill="#F79548"/>
<path d="M3.83682 19.7462C3.19735 19.1067 2.13162 19.1067 1.49215 19.7462C0.639552 20.5988 0.106689 23.1566 0.106689 23.2632C0.106689 23.3698 0.106689 23.3698 0.106689 23.3698C0.106689 23.3698 0.213299 23.4764 0.213299 23.3698C0.319908 23.3698 2.8777 22.8369 3.83691 21.8777C4.58281 21.3449 4.58281 20.3857 3.83682 19.7462Z" fill="#F79548"/>
<path d="M11.4036 35.626C9.48529 33.7077 6.28793 33.7077 4.3696 35.626C1.7052 38.2904 0.106609 46.0704 0 46.3902C0 46.6033 0 46.7099 0.106609 46.8165C0.319736 46.9231 0.532954 46.9231 0.746081 46.9231C1.06582 46.8165 8.84581 45.3244 11.5102 42.5535C13.4285 40.6351 13.4285 37.5443 11.4036 35.626Z" fill="#F79548"/>
<path d="M11.0839 35.7325C10.1246 34.7733 8.52605 34.7733 7.56685 35.7325C6.18138 37.1179 5.4353 40.9547 5.4353 41.0613C5.4353 41.1679 5.4353 41.2744 5.54191 41.2744C5.64852 41.381 5.64852 41.381 5.75504 41.381C5.96817 41.381 9.80491 40.5284 11.0839 39.2495C12.0431 38.2904 12.0431 36.6917 11.0839 35.7325Z" fill="#FCBB76"/>
<path d="M27.8164 38.3969L24.6191 35.1996L31.0137 28.8051V35.1996L27.8164 38.3969Z" fill="#99B4CD"/>
<path d="M27.4967 34.4536L29.5216 32.4287C30.4808 31.4695 31.0137 30.1906 31.0137 28.8051L24.6191 35.1996L27.8164 38.3969L28.8821 37.3311L27.4967 35.9457C27.0704 35.5193 27.0704 34.8799 27.4967 34.4536Z" fill="#6C9ABB"/>
<path d="M29.9478 44.7915L25.6848 40.5285L33.3583 32.855C33.8912 32.3222 34.6372 32.0024 35.4898 32.0024C37.195 32.0024 38.474 33.3879 38.474 34.9866C38.474 35.8392 38.1542 36.5853 37.6214 37.1181L29.9478 44.7915Z" fill="#D5E3EF"/>
<path d="M37.6213 34.9865L29.9478 42.6599L26.7505 39.4627L25.6848 40.5284L29.9478 44.7914L37.6213 37.1179C38.1542 36.5851 38.4739 35.839 38.4739 34.9864C38.4739 34.56 38.3673 34.2404 38.2608 33.9207C38.1542 34.347 37.941 34.6667 37.6213 34.9865Z" fill="#B0C4D9"/>
<path d="M8.63257 29.8708C9.37856 29.1248 10.2312 28.5919 11.0838 28.3787L12.8957 27.7393L19.2902 34.1338L18.6507 35.9456C18.331 36.9048 17.7981 37.7574 17.1587 38.3969L8.63257 29.8708Z" fill="#99B4CD"/>
<path d="M12.8958 27.7394L11.2971 28.2722L14.8141 31.7892C15.6667 32.6418 15.8798 33.8142 15.5601 34.8799C15.4535 35.3063 15.2404 35.7325 14.9206 36.1589L17.1587 38.3969C17.9047 37.6509 18.4376 36.7982 18.6508 35.9456L19.2902 34.1338L12.8958 27.7394Z" fill="#6C9ABB"/>
<path d="M8.63257 19.2133L11.8298 22.4105L18.2244 16.016H11.8298L8.63257 19.2133Z" fill="#99B4CD"/>
<path d="M11.5101 19.9592C11.0838 19.5329 11.0838 18.8935 11.5101 18.4671L13.9614 16.0159H11.8298L8.63257 19.2131L11.8298 22.4104C12.4693 21.7709 12.4693 20.9183 11.8298 20.2789L11.5101 19.9592Z" fill="#6C9ABB"/>
<path d="M2.23804 17.0817L6.50103 21.3447L14.1745 13.6712C14.7074 13.1384 15.0271 12.3923 15.0271 11.5397C15.0271 9.941 13.6416 8.55554 12.043 8.55554C11.1904 8.55554 10.4443 8.87528 9.91143 9.40814L2.23804 17.0817Z" fill="#D5E3EF"/>
<path d="M29.9478 21.3447C32.3022 21.3447 34.2108 19.4361 34.2108 17.0817C34.2108 14.7273 32.3022 12.8187 29.9478 12.8187C27.5934 12.8187 25.6848 14.7273 25.6848 17.0817C25.6848 19.4361 27.5934 21.3447 29.9478 21.3447Z" fill="#70B7E5"/>
<path d="M29.948 22.4106C26.9638 22.4106 24.6191 20.0659 24.6191 17.0817C24.6191 14.0976 26.9638 11.7529 29.948 11.7529C32.9321 11.7529 35.2768 14.0976 35.2768 17.0817C35.2768 20.0659 32.9321 22.4106 29.948 22.4106ZM29.948 13.8845C28.1361 13.8845 26.7507 15.2699 26.7507 17.0817C26.7507 18.8935 28.1361 20.279 29.948 20.279C31.7598 20.279 33.1452 18.8935 33.1452 17.0817C33.1452 15.2699 31.7598 13.8845 29.948 13.8845Z" fill="#F04B4D"/>
<path d="M28.2427 19.8527C27.9229 19.3199 27.8163 18.787 27.8163 18.1475C27.8163 16.3357 29.2018 14.9502 31.0136 14.9502C31.653 14.9502 32.1859 15.1634 32.7188 15.3766C32.0793 14.524 31.1201 13.8845 29.9478 13.8845C28.1359 13.8845 26.7505 15.27 26.7505 17.0818C26.7506 18.254 27.3901 19.2132 28.2427 19.8527Z" fill="#4C9CD6"/>
<path d="M26.7507 33.0682L23.2337 36.5852C22.8073 37.0116 22.168 37.0116 21.7416 36.5852L10.4445 25.2881C10.0182 24.8618 10.0182 24.2224 10.4445 23.7961L13.9615 20.2791L26.7507 33.0682Z" fill="#F04D4E"/>
<path d="M18.864 30.5104L12.1497 23.7961C11.7234 23.3697 10.9774 23.3697 10.4445 23.7961C10.0182 24.2224 10.0182 24.8618 10.4445 25.2882L21.7415 36.5852C22.1679 37.0115 22.8072 37.0115 23.2336 36.5852L26.7506 33.0682L23.0205 29.338L21.8481 30.5104C20.9954 31.363 19.7166 31.363 18.864 30.5104Z" fill="#DB343F"/>
<path d="M30.0168 44.8295L33.1819 41.6644L28.8864 37.3689L25.7213 40.534L30.0168 44.8295Z" fill="#F04D4E"/>
<path d="M32.0794 40.5284L30.5874 42.0205C29.9479 42.6599 29.0953 42.6599 28.4558 42.0205L26.3243 39.8889L25.6848 40.5284L29.9478 44.7914L33.1451 41.5941L32.0794 40.5284Z" fill="#DB343F"/>
<path d="M18.2244 19.7462C18.1178 19.7462 17.9046 19.7462 17.798 19.6396C17.5849 19.4264 17.5849 19.1067 17.798 18.8936L23.1268 13.5648C23.34 13.3516 23.6597 13.3516 23.8728 13.5648C24.086 13.7779 24.086 14.0976 23.8728 14.3107L18.544 19.6396C18.5441 19.7462 18.3309 19.7462 18.2244 19.7462Z" fill="#ECF0F9"/>
<path d="M25.6846 12.2858C25.578 12.2858 25.3648 12.2858 25.2582 12.1792C25.0451 11.9661 25.0451 11.6464 25.2582 11.4332L27.3898 9.30169C27.6029 9.08856 27.9226 9.08856 28.1358 9.30169C28.3489 9.51482 28.3489 9.83455 28.1358 10.0477L26.0042 12.1792C26.0043 12.2858 25.7912 12.2858 25.6846 12.2858Z" fill="#ECF0F9"/>
<path d="M45.0815 0.029541C44.9749 0.029541 44.8684 0.029541 44.7618 0.029541L42.7368 0.349277C39.433 0.88214 36.3423 1.94796 33.3582 3.43994C33.3582 3.43994 35.2765 5.35826 38.4738 8.55562C41.6712 11.753 43.5895 13.6713 43.5895 13.6713C45.0816 10.6872 46.0408 7.59651 46.6802 4.29263L46.9999 2.3743C46.9999 2.26769 46.9999 2.16118 46.9999 2.05457C46.9999 0.88214 46.1473 0.029541 45.0815 0.029541Z" fill="#F04D4E"/>
<path d="M37.4083 4.39919C37.1952 4.39919 36.9819 4.29258 36.8754 4.07945C36.7688 3.75972 36.8754 3.54659 37.1952 3.43998C39.3267 2.58738 41.4582 2.05452 43.6963 1.62817C44.016 1.62817 44.2292 1.73478 44.3358 2.05452C44.3358 2.37426 44.2292 2.58738 43.9094 2.69399C41.7779 3.01373 39.6464 3.6532 37.6214 4.39919C37.5149 4.39919 37.5149 4.39919 37.4083 4.39919Z" fill="#F26A56"/>
<path d="M29.9479 11.8595V11.7529C26.9638 11.7529 24.6191 14.0976 24.6191 17.0817H24.7257C25.2586 17.0817 25.685 16.762 25.7915 16.2291C25.8981 15.4832 26.3243 14.8437 26.7507 14.3108C27.3902 13.6713 28.1361 13.1385 29.0953 12.9254C29.6282 12.8187 29.9479 12.3924 29.9479 11.8595Z" fill="#F26A56"/>
<path d="M29.9478 22.304V22.4106C32.9319 22.4106 35.2766 20.0659 35.2766 17.0818H35.17C34.6371 17.0818 34.2108 17.4015 34.1042 17.9344C33.9976 18.6804 33.5714 19.3198 33.145 19.8527C32.5056 20.4922 31.7596 21.025 30.8004 21.2382C30.2675 21.3449 29.9478 21.7711 29.9478 22.304Z" fill="#DB343F"/>
<path d="M32.0794 36.7983C31.9727 36.7983 31.7596 36.7983 31.653 36.6917C31.4399 36.4786 31.4399 36.1588 31.653 35.9457L33.7846 33.8141C33.9977 33.601 34.3174 33.601 34.5306 33.8141C34.7437 34.0273 34.7437 34.347 34.5306 34.5601L32.399 36.6917C32.399 36.7983 32.1859 36.7983 32.0794 36.7983Z" fill="#ECF0F9"/>
<path d="M14.1745 11.5398L6.50103 19.2133L3.30376 16.016L2.23804 17.0818L6.50103 21.3447L14.1745 13.6713C14.7074 13.1384 15.0271 12.3923 15.0271 11.5397C15.0271 11.1134 14.9205 10.7937 14.814 10.474C14.7074 10.9003 14.4942 11.2201 14.1745 11.5398Z" fill="#B0C4D9"/>
<path d="M8.63258 13.3516C8.52597 13.3516 8.31284 13.3516 8.20623 13.245C7.99311 13.0319 7.99311 12.7122 8.20623 12.499L10.3378 10.3675C10.5509 10.1544 10.8706 10.1544 11.0838 10.3675C11.2969 10.5806 11.2969 10.9003 11.0838 11.1135L8.95222 13.245C8.95222 13.3516 8.73909 13.3516 8.63258 13.3516Z" fill="#ECF0F9"/>
<path d="M6.56736 21.3828L9.73242 18.2178L5.43693 13.9223L2.27187 17.0873L6.56736 21.3828Z" fill="#F04D4E"/>
<path d="M8.63266 17.0817L7.14059 18.5738C6.50112 19.2133 5.64852 19.2133 5.00905 18.5738L2.87751 16.4423L2.23804 17.0817L6.50103 21.3447L9.6983 18.1475L8.63266 17.0817Z" fill="#DB343F"/>
<path d="M40.925 11.0069L43.5895 13.6713C45.0815 10.6872 46.0407 7.59652 46.6801 4.29264L46.9998 2.37432C46.9998 2.26771 46.9998 2.16119 46.9998 2.05458C46.9998 1.52172 46.7867 1.09537 46.467 0.775635C45.2946 4.39916 43.3763 7.91616 40.925 11.0069Z" fill="#DB343F"/>
</svg>
