<svg width="48" height="48" viewBox="0 0 48 48" fill="none" xmlns="http://www.w3.org/2000/svg">
<path d="M25.0909 39.2727V37.0908H16.3636V39.2727C16.3636 40.4727 15.3818 41.4545 14.1818 41.4545H12.0001C11.3455 41.4545 10.9092 41.8909 10.9092 42.5454C10.9092 43.1999 11.3456 43.6363 12.0001 43.6363H29.4546C30.1092 43.6363 30.5455 43.1999 30.5455 42.5454C30.5455 41.8908 30.1091 41.4545 29.4546 41.4545H27.2728C26.0728 41.4545 25.0909 40.4727 25.0909 39.2727Z" fill="#D5E3EF"/>
<path d="M16.3638 37.0909V38.1818H21.8183C22.4729 38.1818 22.9092 38.6182 22.9092 39.2727C22.9092 39.9272 23.3456 40.3635 24.0001 40.3635H24.5455C24.8728 40.3635 25.091 40.1454 25.091 39.8181V38.1817V37.0908H16.3638V37.0909Z" fill="#B0C4D9"/>
<path d="M29.4546 43.6364H12.0001C11.3455 43.6364 10.9092 43.2 10.9092 42.5455H30.5456C30.5455 43.2 30.1092 43.6364 29.4546 43.6364Z" fill="#B0C4D9"/>
<path d="M41.4546 37.0909H2.18184C0.981844 37.0909 0 36.1092 0 34.9092V6.54549C0 5.34549 0.981844 4.36365 2.18184 4.36365H41.4546C42.6546 4.36365 43.6364 5.34549 43.6364 6.54549V34.9091C43.6364 36.1092 42.6546 37.0909 41.4546 37.0909Z" fill="#D5E3EF"/>
<path d="M43.6364 30.5455H0V6.54549C0 5.34549 0.981844 4.36365 2.18184 4.36365H41.4546C42.6546 4.36365 43.6364 5.34549 43.6364 6.54549V30.5455Z" fill="#595A66"/>
<path d="M20.7274 34.909C21.3298 34.909 21.8182 34.4206 21.8182 33.8182C21.8182 33.2157 21.3298 32.7273 20.7274 32.7273C20.1249 32.7273 19.6365 33.2157 19.6365 33.8182C19.6365 34.4206 20.1249 34.909 20.7274 34.909Z" fill="#595A66"/>
<path d="M41.4546 6.54541H2.18188V28.3636H41.4546V6.54541Z" fill="#70B7E5"/>
<path d="M39.2727 27.2727H30.5454L40.3636 17.4546V26.1819C40.3636 26.8364 39.9273 27.2727 39.2727 27.2727Z" fill="#90CEF1"/>
<path d="M27.2727 27.2728L40.3636 14.1819V10.9092L24 27.2728H27.2727Z" fill="#90CEF1"/>
<path d="M8.07271 5.45452C7.09086 5.45452 3.92727 5.01812 3.27271 4.36365H27.2727C26.6181 5.01821 25.6363 5.45452 24.6546 5.45452H8.07271Z" fill="#6F707E"/>
<path d="M18.5455 24C19.1479 24 19.6363 23.5116 19.6363 22.9091C19.6363 22.3066 19.1479 21.8182 18.5455 21.8182C17.943 21.8182 17.4546 22.3066 17.4546 22.9091C17.4546 23.5116 17.943 24 18.5455 24Z" fill="#1470B8"/>
<path d="M25.0909 24C25.6933 24 26.1818 23.5116 26.1818 22.9091C26.1818 22.3066 25.6933 21.8182 25.0909 21.8182C24.4884 21.8182 24 22.3066 24 22.9091C24 23.5116 24.4884 24 25.0909 24Z" fill="#1470B8"/>
<path d="M28.1454 14.6182C27.9273 14.2909 27.6 14.1818 27.2727 14.1818H19.6363C19.6363 12.3272 18.2181 10.9091 16.3636 10.9091C15.709 10.9091 15.2727 11.3455 15.2727 11.9999C15.2727 12.6545 15.7091 13.0908 16.3636 13.0908C17.0181 13.0908 17.4545 13.5272 17.4545 14.1817V15.2726V19.6362C17.4545 20.2907 17.8909 20.727 18.5453 20.727H26.1817C26.7272 20.727 27.1636 20.3998 27.2726 19.8543L28.3635 15.4907C28.3636 15.1636 28.3636 14.8364 28.1454 14.6182Z" fill="#1470B8"/>
<path d="M15.8182 19.6364H12.5454C12.2182 19.6364 12 19.4183 12 19.091C12 18.7637 12.2182 18.5455 12.5454 18.5455H15.8182C16.1454 18.5455 16.3636 18.7637 16.3636 19.091C16.3636 19.4183 16.1454 19.6364 15.8182 19.6364Z" fill="#1470B8"/>
<path d="M14.7274 17.4545H10.3638C10.0365 17.4545 9.81836 17.2364 9.81836 16.9091C9.81836 16.5818 10.0365 16.3636 10.3638 16.3636H14.7274C15.0547 16.3636 15.2728 16.5818 15.2728 16.9091C15.2728 17.2364 15.0547 17.4545 14.7274 17.4545Z" fill="#1470B8"/>
<path d="M13.6365 15.2728H8.18191C7.85463 15.2728 7.63647 15.0546 7.63647 14.7273C7.63647 14.4 7.85463 14.1819 8.18191 14.1819H13.6365C13.9638 14.1819 14.1819 14.4 14.1819 14.7273C14.1819 15.0546 13.9637 15.2728 13.6365 15.2728Z" fill="#1470B8"/>
<path d="M40.3637 34.9092C44.5812 34.9092 48.0001 31.4902 48.0001 27.2728C48.0001 23.0553 44.5812 19.6364 40.3637 19.6364C36.1462 19.6364 32.7273 23.0553 32.7273 27.2728C32.7273 31.4902 36.1462 34.9092 40.3637 34.9092Z" fill="#F6B545"/>
<path d="M40.3637 19.6364C36.1091 19.6364 32.7273 23.0182 32.7273 27.2728C32.7273 31.5273 36.1091 34.9092 40.3637 34.9092C44.6183 34.9092 48.0001 31.5272 48.0001 27.2727C48.0001 23.0181 44.6183 19.6364 40.3637 19.6364ZM40.3637 32.7272C37.3091 32.7272 34.9091 30.3272 34.9091 27.2727C34.9091 24.2181 37.3091 21.8181 40.3637 21.8181C43.4183 21.8181 45.8183 24.2181 45.8183 27.2727C45.8183 30.3272 43.4183 32.7272 40.3637 32.7272Z" fill="#FFCB5B"/>
<path d="M40.3635 34.8C44.6181 34.9091 47.9999 31.4181 47.9999 27.2727H47.8908C47.3454 27.2727 46.909 27.7091 46.7999 28.2545C46.5818 29.7818 45.8181 31.2 44.7272 32.1818C43.8545 33.0545 42.6545 33.6 41.3454 33.8182C40.7999 33.8181 40.3635 34.2545 40.3635 34.8Z" fill="#F6B545"/>
<path d="M40.3637 19.7454C36.1091 19.6363 32.7273 23.1273 32.7273 27.2727H32.8364C33.3819 27.2727 33.8183 26.8363 33.9273 26.2908C34.1455 24.7636 34.9091 23.3454 36 22.3636C36.8727 21.4908 38.0727 20.9454 39.3819 20.7272C39.9274 20.7273 40.3637 20.2908 40.3637 19.7454Z" fill="#FFE27A"/>
<path d="M35.6726 28.0364C35.6726 24.9818 38.0726 22.5818 41.1272 22.5818C42.4363 22.5818 43.6363 23.0182 44.6181 23.891C43.5272 22.5818 42.1089 21.8182 40.3635 21.8182C37.3089 21.8182 34.9089 24.2182 34.9089 27.2728C34.9089 29.0182 35.6725 30.4364 36.8725 31.4182C36.109 30.5454 35.6726 29.3454 35.6726 28.0364Z" fill="#F19920"/>
<path d="M43.6364 30.6546C43.5273 30.6546 43.4182 30.6546 43.3091 30.5455C43.091 30.3273 43.091 30 43.3091 29.7819C43.9637 29.1273 44.291 28.1455 44.291 27.2727C44.291 26.9455 44.5091 26.7273 44.8364 26.7273C45.1637 26.7273 45.3818 26.9455 45.3818 27.2727C45.3818 28.4727 44.9454 29.6727 44.1818 30.5455C43.9636 30.6546 43.7454 30.6546 43.6364 30.6546Z" fill="#FFCB5B"/>
<path d="M40.3638 30.5455C39.7093 30.5455 39.2729 30.1091 39.2729 29.4546V25.091C39.2729 24.4364 39.7094 24.0001 40.3638 24.0001C41.0183 24.0001 41.4547 24.4365 41.4547 25.091V29.4546C41.4548 30.1092 41.0184 30.5455 40.3638 30.5455Z" fill="#F19920"/>
<path d="M44.4001 33.7091C43.6365 30.9818 41.6728 28.8 39.1637 27.8182C38.7273 25.3091 37.091 23.1274 35.0183 21.8182C33.7091 23.2364 32.8364 25.091 32.8364 27.1637C32.8364 31.4182 36.2183 34.8001 40.4728 34.8001C41.891 34.9091 43.2001 34.4727 44.4001 33.7091Z" fill="#F19920"/>
<path d="M36.8726 31.4182C36.109 30.4364 35.5635 29.2364 35.5635 27.9273C35.5635 26.4 36.2181 24.9819 37.3089 24C37.0908 23.6728 36.8725 23.4546 36.6544 23.2365C35.5635 24.2183 34.9089 25.6365 34.9089 27.2729C34.909 29.0182 35.6726 30.4365 36.8726 31.4182Z" fill="#E78825"/>
<path d="M39.2727 27.9274V29.4547C39.2727 30.1092 39.7091 30.5455 40.3636 30.5455C41.018 30.5455 41.4545 30.1091 41.4545 29.4547V29.2365C40.8 28.691 40.0364 28.2546 39.2727 27.9274Z" fill="#E78825"/>
<path d="M44.4 33.7091C44.1819 32.9455 43.9636 32.2909 43.5273 31.6363C42.6546 32.2909 41.5637 32.7272 40.3637 32.7272C37.3091 32.7272 34.9091 30.3272 34.9091 27.2727C34.9091 25.6362 35.5637 24.2181 36.6546 23.2362C36.1091 22.6908 35.5637 22.2544 34.9091 21.9271C33.6 23.3453 32.7273 25.1998 32.7273 27.2726C32.7273 31.5271 36.1091 34.909 40.3637 34.909C41.8909 34.9091 43.2 34.4727 44.4 33.7091Z" fill="#F6B545"/>
<path d="M44.0726 32.7273C43.3091 33.2727 42.3272 33.6 41.3454 33.8182C40.7999 33.9273 40.3635 34.3636 40.3635 34.909C41.8908 34.909 43.1999 34.4726 44.3999 33.709C44.2908 33.3819 44.1818 33.0546 44.0726 32.7273Z" fill="#F19920"/>
<path d="M34.9091 21.9272C33.6 23.3454 32.7273 25.2 32.7273 27.2727H32.8364C33.3819 27.2727 33.8183 26.8363 33.9273 26.2908C34.1454 24.7636 34.9091 23.4544 35.8909 22.4727C35.5636 22.3636 35.2364 22.1454 34.9091 21.9272Z" fill="#FFCB5B"/>
<path d="M30.5453 37.0909C34.7628 37.0909 38.1817 33.672 38.1817 29.4545C38.1817 25.2371 34.7628 21.8181 30.5453 21.8181C26.3279 21.8181 22.9089 25.2371 22.9089 29.4545C22.9089 33.672 26.3279 37.0909 30.5453 37.0909Z" fill="#F6B545"/>
<path d="M29.4546 34.9091C29.4546 35.6727 29.5637 36.3273 29.7819 37.091C30 37.091 30.3273 37.091 30.5455 37.091C34.8 37.091 38.1819 33.7091 38.1819 29.4545C38.1819 28.691 38.0727 28.0364 37.8546 27.2727C37.6364 27.2727 37.3091 27.2727 37.091 27.2727C32.8364 27.2727 29.4546 30.6546 29.4546 34.9091Z" fill="#F19920"/>
<path d="M30.5453 21.8181C26.2908 21.8181 22.9089 25.2 22.9089 29.4545C22.9089 33.7091 26.2908 37.0909 30.5453 37.0909C34.7999 37.0909 38.1817 33.7091 38.1817 29.4545C38.1817 25.2 34.7999 21.8181 30.5453 21.8181ZM30.5453 34.9091C27.4908 34.9091 25.0908 32.5091 25.0908 29.4545C25.0908 26.4 27.4908 24 30.5453 24C33.5999 24 35.9999 26.4 35.9999 29.4545C35.9999 32.5091 33.5999 34.9091 30.5453 34.9091Z" fill="#FFCB5B"/>
<path d="M30.5454 36.9819C34.8 37.091 38.1818 33.6 38.1818 29.4546H38.0727C37.5273 29.4546 37.0908 29.891 36.9818 30.4364C36.7637 31.9637 36 33.3819 34.9091 34.3637C34.0364 35.2364 32.8364 35.7819 31.5273 36C30.9818 36 30.5454 36.4364 30.5454 36.9819Z" fill="#F6B545"/>
<path d="M30.5453 21.9273C26.2908 21.8182 22.9089 25.3091 22.9089 29.4546H23.0181C23.5635 29.4546 23.9999 29.0182 24.1089 28.4727C24.3271 26.9455 25.0908 25.5273 26.1817 24.5455C27.0544 23.6727 28.2544 23.1273 29.5635 22.909C30.109 22.9091 30.5453 22.4727 30.5453 21.9273Z" fill="#FFE27A"/>
<path d="M25.8545 30.2182C25.8545 27.1636 28.2545 24.7636 31.3091 24.7636C32.6182 24.7636 33.8182 25.2 34.7999 26.0727C33.7091 24.7636 32.2908 24 30.5454 24C27.4908 24 25.0908 26.4 25.0908 29.4546C25.0908 31.2 25.8544 32.6182 27.0544 33.6C26.2908 32.7273 25.8545 31.5273 25.8545 30.2182Z" fill="#F19920"/>
<path d="M33.818 32.8365C33.7089 32.8365 33.5999 32.8365 33.4908 32.7273C33.2726 32.5092 33.2726 32.1819 33.4908 31.9637C34.1453 31.3092 34.4726 30.3273 34.4726 29.4546C34.4726 29.1273 34.6908 28.9092 35.018 28.9092C35.3453 28.9092 35.5635 29.1273 35.5635 29.4546C35.5635 30.6546 35.1271 31.8546 34.3635 32.7273C34.1453 32.8365 33.9272 32.8365 33.818 32.8365Z" fill="#FFCB5B"/>
<path d="M30.5455 32.7272C29.8909 32.7272 29.4546 32.2908 29.4546 31.6364V27.2728C29.4546 26.6182 29.891 26.1819 30.5455 26.1819C31.2 26.1819 31.6363 26.6183 31.6363 27.2728V31.6364C31.6364 32.2908 31.2 32.7272 30.5455 32.7272Z" fill="#F19920"/>
<path d="M35.5636 27.3818C35.7818 28.0364 36 28.691 36 29.4545C36 32.5091 33.6 34.9091 30.5455 34.9091C30.2182 34.9091 29.7819 34.9091 29.4546 34.8V34.9091C29.4546 35.6727 29.5637 36.3273 29.7819 37.091C30 37.091 30.3273 37.091 30.5455 37.091C34.8 37.091 38.1819 33.7091 38.1819 29.4545C38.1819 28.691 38.0727 28.0364 37.8546 27.2727C37.6364 27.2727 37.3091 27.2727 37.091 27.2727C36.5455 27.2727 36.1092 27.2727 35.5636 27.3818Z" fill="#F6B545"/>
<path d="M35.9999 43.6364C40.2174 43.6364 43.6363 40.2175 43.6363 36C43.6363 31.7826 40.2174 28.3636 35.9999 28.3636C31.7825 28.3636 28.3635 31.7826 28.3635 36C28.3635 40.2175 31.7825 43.6364 35.9999 43.6364Z" fill="#F6B545"/>
<path d="M35.9999 28.3636C31.7454 28.3636 28.3635 31.7455 28.3635 36C28.3635 40.2546 31.7454 43.6364 35.9999 43.6364C40.2545 43.6364 43.6363 40.2546 43.6363 36C43.6363 31.7455 40.2545 28.3636 35.9999 28.3636ZM35.9999 41.4546C32.9454 41.4546 30.5454 39.0546 30.5454 36C30.5454 32.9455 32.9454 30.5455 35.9999 30.5455C39.0545 30.5455 41.4545 32.9455 41.4545 36C41.4545 39.0546 39.0545 41.4546 35.9999 41.4546Z" fill="#FFCB5B"/>
<path d="M36 43.5273C40.2546 43.6364 43.6364 40.1454 43.6364 36H43.5273C42.9818 36 42.5454 36.4364 42.4364 36.9818C42.2182 38.5091 41.4546 39.9273 40.3637 40.9091C39.491 41.7818 38.291 42.3273 36.9818 42.5455C36.4364 42.5454 36 42.9818 36 43.5273Z" fill="#F6B545"/>
<path d="M35.9999 28.4727C31.7454 28.3636 28.3635 31.8545 28.3635 36H28.4727C29.0181 36 29.4545 35.5636 29.5635 35.0181C29.7817 33.4909 30.5454 32.0727 31.6362 31.0909C32.509 30.2181 33.709 29.6727 35.0181 29.4545C35.5635 29.4545 35.9999 29.0181 35.9999 28.4727Z" fill="#FFE27A"/>
<path d="M31.3091 36.7636C31.3091 33.709 33.7091 31.309 36.7637 31.309C38.0728 31.309 39.2728 31.7454 40.2545 32.6181C39.1637 31.309 37.7454 30.5454 36 30.5454C32.9454 30.5454 30.5454 32.9454 30.5454 36C30.5454 37.7454 31.309 39.1636 32.509 40.1454C31.7454 39.2727 31.3091 38.0727 31.3091 36.7636Z" fill="#F19920"/>
<path d="M39.2726 39.3819C39.1635 39.3819 39.0545 39.3819 38.9454 39.2727C38.7272 39.0546 38.7272 38.7273 38.9454 38.5091C39.5999 37.8546 39.9272 36.8727 39.9272 36C39.9272 35.6727 40.1454 35.4546 40.4726 35.4546C40.7999 35.4546 41.0181 35.6727 41.0181 36C41.0181 37.2 40.5817 38.4 39.8181 39.2727C39.5999 39.3819 39.3818 39.3819 39.2726 39.3819Z" fill="#FFCB5B"/>
<path d="M36.0001 39.2728C35.3455 39.2728 34.9092 38.8364 34.9092 38.1819V33.8183C34.9092 33.1637 35.3456 32.7274 36.0001 32.7274C36.6546 32.7274 37.0909 33.1638 37.0909 33.8183V38.1819C37.0909 38.8364 36.6546 39.2728 36.0001 39.2728Z" fill="#F19920"/>
</svg>
